<mxfile host="app.diagrams.net" modified="2024-05-28T22:36:44.801Z" agent="Mozilla/5.0 (Windows NT 10.0; Win64; x64; rv:109.0) Gecko/20100101 Firefox/115.0" etag="G8e6AbnjyshmkBG2l0B4" version="24.4.8" type="device">
  <diagram name="Page-1" id="LuQRrLr9n_kckGOL1ss9">
    <mxGraphModel dx="2045" dy="628" grid="1" gridSize="10" guides="1" tooltips="1" connect="1" arrows="1" fold="1" page="1" pageScale="1" pageWidth="850" pageHeight="1100" math="0" shadow="0">
      <root>
        <mxCell id="0" />
        <mxCell id="1" parent="0" />
        <mxCell id="bZqsr0Kt9vONqrTMV2RE-99" value="" style="rounded=1;whiteSpace=wrap;html=1;fillColor=#f8cecc;strokeColor=#b85450;opacity=50;" vertex="1" parent="1">
          <mxGeometry x="-110" y="260" width="360" height="140" as="geometry" />
        </mxCell>
        <mxCell id="bZqsr0Kt9vONqrTMV2RE-1" value="Miner 1" style="rounded=1;whiteSpace=wrap;html=1;fillColor=#f8cecc;strokeColor=#b85450;" vertex="1" parent="1">
          <mxGeometry x="180" y="280" width="60" height="30" as="geometry" />
        </mxCell>
        <mxCell id="bZqsr0Kt9vONqrTMV2RE-2" value="Miner 2" style="rounded=1;whiteSpace=wrap;html=1;fillColor=#f8cecc;strokeColor=#b85450;" vertex="1" parent="1">
          <mxGeometry x="180" y="350" width="60" height="30" as="geometry" />
        </mxCell>
        <mxCell id="bZqsr0Kt9vONqrTMV2RE-4" value="Chain" style="rounded=1;whiteSpace=wrap;html=1;fillColor=#dae8fc;strokeColor=#6c8ebf;" vertex="1" parent="1">
          <mxGeometry x="390" y="100" width="120" height="30" as="geometry" />
        </mxCell>
        <mxCell id="bZqsr0Kt9vONqrTMV2RE-5" value="Custom NAS Algo*" style="rounded=1;whiteSpace=wrap;html=1;fillColor=#f8cecc;strokeColor=#b85450;" vertex="1" parent="1">
          <mxGeometry x="-100" y="280" width="120" height="30" as="geometry" />
        </mxCell>
        <mxCell id="bZqsr0Kt9vONqrTMV2RE-6" value="Custom NAS Algo*" style="rounded=1;whiteSpace=wrap;html=1;fillColor=#f8cecc;strokeColor=#b85450;" vertex="1" parent="1">
          <mxGeometry x="-100" y="350" width="120" height="30" as="geometry" />
        </mxCell>
        <mxCell id="bZqsr0Kt9vONqrTMV2RE-8" value="" style="endArrow=classic;html=1;rounded=0;exitX=1;exitY=0.25;exitDx=0;exitDy=0;" edge="1" parent="1">
          <mxGeometry width="50" height="50" relative="1" as="geometry">
            <mxPoint x="240" y="297.5" as="sourcePoint" />
            <mxPoint x="440" y="190" as="targetPoint" />
            <Array as="points">
              <mxPoint x="440" y="298" />
            </Array>
          </mxGeometry>
        </mxCell>
        <mxCell id="bZqsr0Kt9vONqrTMV2RE-9" value="" style="endArrow=classic;html=1;rounded=0;exitX=1;exitY=0.25;exitDx=0;exitDy=0;entryX=0.5;entryY=1;entryDx=0;entryDy=0;" edge="1" parent="1">
          <mxGeometry width="50" height="50" relative="1" as="geometry">
            <mxPoint x="240" y="368" as="sourcePoint" />
            <mxPoint x="440" y="190" as="targetPoint" />
            <Array as="points">
              <mxPoint x="440" y="368" />
            </Array>
          </mxGeometry>
        </mxCell>
        <mxCell id="bZqsr0Kt9vONqrTMV2RE-10" value="HuggingFace Model Repository" style="rounded=1;whiteSpace=wrap;html=1;fillColor=#e1d5e7;strokeColor=#9673a6;" vertex="1" parent="1">
          <mxGeometry x="390" y="170" width="120" height="30" as="geometry" />
        </mxCell>
        <mxCell id="bZqsr0Kt9vONqrTMV2RE-11" value="" style="endArrow=classic;html=1;rounded=0;exitX=0.5;exitY=0;exitDx=0;exitDy=0;entryX=0;entryY=0.25;entryDx=0;entryDy=0;" edge="1" parent="1" source="bZqsr0Kt9vONqrTMV2RE-1" target="bZqsr0Kt9vONqrTMV2RE-4">
          <mxGeometry width="50" height="50" relative="1" as="geometry">
            <mxPoint x="180" y="261" as="sourcePoint" />
            <mxPoint x="330" y="88.5" as="targetPoint" />
            <Array as="points">
              <mxPoint x="210" y="250" />
              <mxPoint x="270" y="250" />
              <mxPoint x="270" y="108" />
            </Array>
          </mxGeometry>
        </mxCell>
        <mxCell id="bZqsr0Kt9vONqrTMV2RE-12" value="" style="endArrow=classic;html=1;rounded=0;exitX=0.5;exitY=0;exitDx=0;exitDy=0;entryX=0;entryY=0.5;entryDx=0;entryDy=0;" edge="1" parent="1" source="bZqsr0Kt9vONqrTMV2RE-2" target="bZqsr0Kt9vONqrTMV2RE-4">
          <mxGeometry width="50" height="50" relative="1" as="geometry">
            <mxPoint x="240" y="362.5" as="sourcePoint" />
            <mxPoint x="390" y="190" as="targetPoint" />
            <Array as="points">
              <mxPoint x="210" y="330" />
              <mxPoint x="320" y="330" />
              <mxPoint x="320" y="115" />
            </Array>
          </mxGeometry>
        </mxCell>
        <mxCell id="bZqsr0Kt9vONqrTMV2RE-88" value="" style="edgeStyle=orthogonalEdgeStyle;rounded=0;orthogonalLoop=1;jettySize=auto;html=1;" edge="1" parent="1" source="bZqsr0Kt9vONqrTMV2RE-13" target="bZqsr0Kt9vONqrTMV2RE-59">
          <mxGeometry relative="1" as="geometry" />
        </mxCell>
        <mxCell id="bZqsr0Kt9vONqrTMV2RE-13" value="Validator" style="rounded=1;whiteSpace=wrap;html=1;fillColor=#fff2cc;strokeColor=#d6b656;" vertex="1" parent="1">
          <mxGeometry x="550" y="280" width="120" height="40" as="geometry" />
        </mxCell>
        <mxCell id="bZqsr0Kt9vONqrTMV2RE-15" value="" style="endArrow=classic;html=1;rounded=0;entryX=0.5;entryY=0;entryDx=0;entryDy=0;exitX=1;exitY=0.25;exitDx=0;exitDy=0;" edge="1" parent="1" source="bZqsr0Kt9vONqrTMV2RE-4" target="bZqsr0Kt9vONqrTMV2RE-13">
          <mxGeometry width="50" height="50" relative="1" as="geometry">
            <mxPoint x="610" y="120" as="sourcePoint" />
            <mxPoint x="450" y="360" as="targetPoint" />
            <Array as="points">
              <mxPoint x="610" y="108" />
            </Array>
          </mxGeometry>
        </mxCell>
        <mxCell id="bZqsr0Kt9vONqrTMV2RE-16" value="" style="endArrow=classic;html=1;rounded=0;entryX=0.25;entryY=0;entryDx=0;entryDy=0;exitX=1;exitY=0.25;exitDx=0;exitDy=0;" edge="1" parent="1" target="bZqsr0Kt9vONqrTMV2RE-13">
          <mxGeometry width="50" height="50" relative="1" as="geometry">
            <mxPoint x="510" y="178" as="sourcePoint" />
            <mxPoint x="610" y="350" as="targetPoint" />
            <Array as="points">
              <mxPoint x="580" y="178" />
            </Array>
          </mxGeometry>
        </mxCell>
        <mxCell id="bZqsr0Kt9vONqrTMV2RE-19" value="" style="endArrow=classic;html=1;rounded=0;strokeColor=#999999;" edge="1" parent="1">
          <mxGeometry width="50" height="50" relative="1" as="geometry">
            <mxPoint x="540" y="565" as="sourcePoint" />
            <mxPoint x="710" y="565" as="targetPoint" />
          </mxGeometry>
        </mxCell>
        <mxCell id="bZqsr0Kt9vONqrTMV2RE-20" value="" style="endArrow=classic;html=1;rounded=0;strokeColor=#808080;" edge="1" parent="1">
          <mxGeometry width="50" height="50" relative="1" as="geometry">
            <mxPoint x="540" y="565" as="sourcePoint" />
            <mxPoint x="540" y="420" as="targetPoint" />
          </mxGeometry>
        </mxCell>
        <mxCell id="bZqsr0Kt9vONqrTMV2RE-21" value="" style="ellipse;whiteSpace=wrap;html=1;aspect=fixed;fillColor=#d5e8d4;strokeColor=#82b366;" vertex="1" parent="1">
          <mxGeometry x="600" y="470" width="10" height="10" as="geometry" />
        </mxCell>
        <mxCell id="bZqsr0Kt9vONqrTMV2RE-23" value="" style="ellipse;whiteSpace=wrap;html=1;aspect=fixed;fillColor=#d5e8d4;strokeColor=#82b366;" vertex="1" parent="1">
          <mxGeometry x="575" y="490" width="10" height="10" as="geometry" />
        </mxCell>
        <mxCell id="bZqsr0Kt9vONqrTMV2RE-24" value="" style="ellipse;whiteSpace=wrap;html=1;aspect=fixed;fillColor=#f8cecc;strokeColor=#b85450;" vertex="1" parent="1">
          <mxGeometry x="600" y="520" width="10" height="10" as="geometry" />
        </mxCell>
        <mxCell id="bZqsr0Kt9vONqrTMV2RE-25" value="" style="ellipse;whiteSpace=wrap;html=1;aspect=fixed;fillColor=#f8cecc;strokeColor=#b85450;" vertex="1" parent="1">
          <mxGeometry x="630" y="500" width="10" height="10" as="geometry" />
        </mxCell>
        <mxCell id="bZqsr0Kt9vONqrTMV2RE-26" value="" style="ellipse;whiteSpace=wrap;html=1;aspect=fixed;fillColor=#f8cecc;strokeColor=#b85450;" vertex="1" parent="1">
          <mxGeometry x="640" y="510" width="10" height="10" as="geometry" />
        </mxCell>
        <mxCell id="bZqsr0Kt9vONqrTMV2RE-27" value="" style="ellipse;whiteSpace=wrap;html=1;aspect=fixed;fillColor=#d5e8d4;strokeColor=#82b366;" vertex="1" parent="1">
          <mxGeometry x="630" y="460" width="10" height="10" as="geometry" />
        </mxCell>
        <mxCell id="bZqsr0Kt9vONqrTMV2RE-28" value="" style="ellipse;whiteSpace=wrap;html=1;aspect=fixed;fillColor=#d5e8d4;strokeColor=#82b366;" vertex="1" parent="1">
          <mxGeometry x="560" y="520" width="10" height="10" as="geometry" />
        </mxCell>
        <mxCell id="bZqsr0Kt9vONqrTMV2RE-29" value="" style="ellipse;whiteSpace=wrap;html=1;aspect=fixed;fillColor=#f8cecc;strokeColor=#b85450;" vertex="1" parent="1">
          <mxGeometry x="660" y="490" width="10" height="10" as="geometry" />
        </mxCell>
        <mxCell id="bZqsr0Kt9vONqrTMV2RE-30" value="" style="ellipse;whiteSpace=wrap;html=1;aspect=fixed;fillColor=#f8cecc;strokeColor=#b85450;" vertex="1" parent="1">
          <mxGeometry x="660" y="535" width="10" height="10" as="geometry" />
        </mxCell>
        <mxCell id="bZqsr0Kt9vONqrTMV2RE-31" value="" style="ellipse;whiteSpace=wrap;html=1;aspect=fixed;fillColor=#d5e8d4;strokeColor=#82b366;" vertex="1" parent="1">
          <mxGeometry x="660" y="460" width="10" height="10" as="geometry" />
        </mxCell>
        <mxCell id="bZqsr0Kt9vONqrTMV2RE-32" value="" style="ellipse;whiteSpace=wrap;html=1;aspect=fixed;fillColor=#f8cecc;strokeColor=#b85450;" vertex="1" parent="1">
          <mxGeometry x="620" y="525" width="10" height="10" as="geometry" />
        </mxCell>
        <mxCell id="bZqsr0Kt9vONqrTMV2RE-33" value="" style="ellipse;whiteSpace=wrap;html=1;aspect=fixed;fillColor=#f8cecc;strokeColor=#b85450;" vertex="1" parent="1">
          <mxGeometry x="590" y="500" width="10" height="10" as="geometry" />
        </mxCell>
        <mxCell id="bZqsr0Kt9vONqrTMV2RE-38" value="" style="endArrow=none;dashed=1;html=1;dashPattern=1 3;strokeWidth=2;rounded=0;exitX=0.5;exitY=0;exitDx=0;exitDy=0;" edge="1" parent="1">
          <mxGeometry width="50" height="50" relative="1" as="geometry">
            <mxPoint x="567" y="519" as="sourcePoint" />
            <mxPoint x="665" y="465" as="targetPoint" />
            <Array as="points">
              <mxPoint x="580" y="490" />
              <mxPoint x="610" y="470" />
              <mxPoint x="640" y="460" />
            </Array>
          </mxGeometry>
        </mxCell>
        <mxCell id="bZqsr0Kt9vONqrTMV2RE-59" value="Validate test set on models and draw pareto" style="rounded=1;whiteSpace=wrap;html=1;fillColor=#fff2cc;strokeColor=#d6b656;" vertex="1" parent="1">
          <mxGeometry x="550" y="340" width="120" height="50" as="geometry" />
        </mxCell>
        <mxCell id="bZqsr0Kt9vONqrTMV2RE-62" value="Reset weights, retrain&lt;br&gt;From Scratch. Ensure Tesnet was not leaked by miner during training" style="rounded=1;whiteSpace=wrap;html=1;fillColor=#fff2cc;strokeColor=#d6b656;" vertex="1" parent="1">
          <mxGeometry x="90" y="455" width="150" height="80" as="geometry" />
        </mxCell>
        <mxCell id="bZqsr0Kt9vONqrTMV2RE-63" value="" style="endArrow=classic;html=1;rounded=0;exitX=1;exitY=0.5;exitDx=0;exitDy=0;entryX=0;entryY=0.5;entryDx=0;entryDy=0;" edge="1" parent="1" target="bZqsr0Kt9vONqrTMV2RE-112">
          <mxGeometry width="50" height="50" relative="1" as="geometry">
            <mxPoint x="20" y="364.58000000000004" as="sourcePoint" />
            <mxPoint x="120" y="364.58000000000004" as="targetPoint" />
          </mxGeometry>
        </mxCell>
        <mxCell id="bZqsr0Kt9vONqrTMV2RE-64" value="" style="endArrow=classic;html=1;rounded=0;exitX=1;exitY=0.5;exitDx=0;exitDy=0;entryX=0;entryY=0.5;entryDx=0;entryDy=0;" edge="1" parent="1" target="bZqsr0Kt9vONqrTMV2RE-111">
          <mxGeometry width="50" height="50" relative="1" as="geometry">
            <mxPoint x="20" y="294.58" as="sourcePoint" />
            <mxPoint x="120" y="294.58" as="targetPoint" />
          </mxGeometry>
        </mxCell>
        <mxCell id="bZqsr0Kt9vONqrTMV2RE-65" value="&lt;font style=&quot;font-size: 10px;&quot;&gt;Upload Best Model&lt;/font&gt;" style="text;html=1;align=center;verticalAlign=middle;whiteSpace=wrap;rounded=0;" vertex="1" parent="1">
          <mxGeometry x="315" y="270" width="145" height="30" as="geometry" />
        </mxCell>
        <mxCell id="bZqsr0Kt9vONqrTMV2RE-69" value="&lt;font style=&quot;font-size: 10px;&quot;&gt;Model Meta Data&lt;/font&gt;" style="text;html=1;align=center;verticalAlign=middle;whiteSpace=wrap;rounded=0;rotation=-90;" vertex="1" parent="1">
          <mxGeometry x="190" y="180" width="145" height="30" as="geometry" />
        </mxCell>
        <mxCell id="bZqsr0Kt9vONqrTMV2RE-70" value="&lt;font style=&quot;font-size: 10px;&quot;&gt;Model Meta Data&lt;/font&gt;" style="text;html=1;align=center;verticalAlign=middle;whiteSpace=wrap;rounded=0;rotation=-90;" vertex="1" parent="1">
          <mxGeometry x="240" y="180" width="145" height="30" as="geometry" />
        </mxCell>
        <mxCell id="bZqsr0Kt9vONqrTMV2RE-71" value="" style="endArrow=classic;html=1;rounded=0;strokeColor=#808080;" edge="1" parent="1">
          <mxGeometry width="50" height="50" relative="1" as="geometry">
            <mxPoint x="260" y="564" as="sourcePoint" />
            <mxPoint x="430" y="564" as="targetPoint" />
          </mxGeometry>
        </mxCell>
        <mxCell id="bZqsr0Kt9vONqrTMV2RE-72" value="" style="endArrow=classic;html=1;rounded=0;strokeColor=#808080;" edge="1" parent="1">
          <mxGeometry width="50" height="50" relative="1" as="geometry">
            <mxPoint x="260" y="565" as="sourcePoint" />
            <mxPoint x="260" y="420" as="targetPoint" />
          </mxGeometry>
        </mxCell>
        <mxCell id="bZqsr0Kt9vONqrTMV2RE-73" value="" style="ellipse;whiteSpace=wrap;html=1;aspect=fixed;fillColor=#d5e8d4;strokeColor=#82b366;" vertex="1" parent="1">
          <mxGeometry x="320" y="470" width="10" height="10" as="geometry" />
        </mxCell>
        <mxCell id="bZqsr0Kt9vONqrTMV2RE-74" value="" style="ellipse;whiteSpace=wrap;html=1;aspect=fixed;fillColor=#d5e8d4;strokeColor=#82b366;" vertex="1" parent="1">
          <mxGeometry x="295" y="490" width="10" height="10" as="geometry" />
        </mxCell>
        <mxCell id="bZqsr0Kt9vONqrTMV2RE-78" value="" style="ellipse;whiteSpace=wrap;html=1;aspect=fixed;fillColor=#d5e8d4;strokeColor=#82b366;" vertex="1" parent="1">
          <mxGeometry x="350" y="460" width="10" height="10" as="geometry" />
        </mxCell>
        <mxCell id="bZqsr0Kt9vONqrTMV2RE-79" value="" style="ellipse;whiteSpace=wrap;html=1;aspect=fixed;fillColor=#d5e8d4;strokeColor=#82b366;" vertex="1" parent="1">
          <mxGeometry x="280" y="520" width="10" height="10" as="geometry" />
        </mxCell>
        <mxCell id="bZqsr0Kt9vONqrTMV2RE-82" value="" style="ellipse;whiteSpace=wrap;html=1;aspect=fixed;fillColor=#d5e8d4;strokeColor=#82b366;" vertex="1" parent="1">
          <mxGeometry x="380" y="460" width="10" height="10" as="geometry" />
        </mxCell>
        <mxCell id="bZqsr0Kt9vONqrTMV2RE-85" value="" style="endArrow=none;dashed=1;html=1;dashPattern=1 3;strokeWidth=2;rounded=0;exitX=0.5;exitY=0;exitDx=0;exitDy=0;" edge="1" parent="1">
          <mxGeometry width="50" height="50" relative="1" as="geometry">
            <mxPoint x="287" y="519" as="sourcePoint" />
            <mxPoint x="385" y="465" as="targetPoint" />
            <Array as="points">
              <mxPoint x="300" y="490" />
              <mxPoint x="330" y="470" />
              <mxPoint x="360" y="460" />
            </Array>
          </mxGeometry>
        </mxCell>
        <mxCell id="bZqsr0Kt9vONqrTMV2RE-86" value="Separate Optimal Answers&amp;nbsp; " style="rounded=1;whiteSpace=wrap;html=1;fillColor=#fff2cc;strokeColor=#d6b656;" vertex="1" parent="1">
          <mxGeometry x="435" y="465.75" width="90" height="50" as="geometry" />
        </mxCell>
        <mxCell id="bZqsr0Kt9vONqrTMV2RE-89" value="&lt;font style=&quot;font-size: 10px;&quot;&gt;Upload Best Model&lt;/font&gt;" style="text;html=1;align=center;verticalAlign=middle;whiteSpace=wrap;rounded=0;" vertex="1" parent="1">
          <mxGeometry x="315" y="340" width="145" height="30" as="geometry" />
        </mxCell>
        <mxCell id="bZqsr0Kt9vONqrTMV2RE-90" value="Reward or blacklist miners if Testnet was leaked durning NAS training &lt;div&gt;&lt;br&gt;&lt;/div&gt;" style="rounded=1;whiteSpace=wrap;html=1;fillColor=#fff2cc;strokeColor=#d6b656;" vertex="1" parent="1">
          <mxGeometry x="-80" y="455" width="150" height="80" as="geometry" />
        </mxCell>
        <mxCell id="bZqsr0Kt9vONqrTMV2RE-91" value="" style="endArrow=classic;html=1;rounded=0;exitX=0;exitY=0.5;exitDx=0;exitDy=0;entryX=0.5;entryY=0;entryDx=0;entryDy=0;" edge="1" parent="1" source="bZqsr0Kt9vONqrTMV2RE-90" target="bZqsr0Kt9vONqrTMV2RE-4">
          <mxGeometry width="50" height="50" relative="1" as="geometry">
            <mxPoint x="240" y="310" as="sourcePoint" />
            <mxPoint x="450" y="80" as="targetPoint" />
            <Array as="points">
              <mxPoint x="-140" y="495" />
              <mxPoint x="-140" y="290" />
              <mxPoint x="-140" y="80" />
              <mxPoint x="-80" y="80" />
              <mxPoint x="450" y="80" />
            </Array>
          </mxGeometry>
        </mxCell>
        <mxCell id="bZqsr0Kt9vONqrTMV2RE-93" value="&lt;font style=&quot;font-size: 10px;&quot;&gt;Download Models&lt;/font&gt;" style="text;html=1;align=center;verticalAlign=middle;whiteSpace=wrap;rounded=0;rotation=90;" vertex="1" parent="1">
          <mxGeometry x="497" y="208" width="145" height="30" as="geometry" />
        </mxCell>
        <mxCell id="bZqsr0Kt9vONqrTMV2RE-94" value="&lt;font style=&quot;font-size: 10px;&quot;&gt;Download Model Metadatas&lt;br&gt;&lt;/font&gt;" style="text;html=1;align=center;verticalAlign=middle;whiteSpace=wrap;rounded=0;rotation=90;" vertex="1" parent="1">
          <mxGeometry x="532.5" y="170" width="145" height="30" as="geometry" />
        </mxCell>
        <mxCell id="bZqsr0Kt9vONqrTMV2RE-96" value="" style="endArrow=classic;html=1;rounded=0;exitX=0.5;exitY=1;exitDx=0;exitDy=0;" edge="1" parent="1" source="bZqsr0Kt9vONqrTMV2RE-59">
          <mxGeometry width="50" height="50" relative="1" as="geometry">
            <mxPoint x="240" y="310" as="sourcePoint" />
            <mxPoint x="610" y="420" as="targetPoint" />
          </mxGeometry>
        </mxCell>
        <mxCell id="bZqsr0Kt9vONqrTMV2RE-100" value="&lt;font style=&quot;font-size: 10px;&quot;&gt;*Miners use existing or design their own NAS algorithms&amp;nbsp; &lt;/font&gt;" style="text;html=1;align=center;verticalAlign=middle;resizable=0;points=[];autosize=1;strokeColor=none;fillColor=none;" vertex="1" parent="1">
          <mxGeometry x="-110" y="375" width="290" height="30" as="geometry" />
        </mxCell>
        <mxCell id="bZqsr0Kt9vONqrTMV2RE-103" value="" style="rounded=0;whiteSpace=wrap;html=1;fillColor=#fff2cc;strokeColor=#d6b656;opacity=30;" vertex="1" parent="1">
          <mxGeometry x="260" y="419.5" width="160" height="142.5" as="geometry" />
        </mxCell>
        <mxCell id="bZqsr0Kt9vONqrTMV2RE-104" value="" style="rounded=0;whiteSpace=wrap;html=1;fillColor=#fff2cc;strokeColor=#d6b656;opacity=30;" vertex="1" parent="1">
          <mxGeometry x="540" y="423.75" width="160" height="142.5" as="geometry" />
        </mxCell>
        <mxCell id="bZqsr0Kt9vONqrTMV2RE-106" value="" style="endArrow=classic;html=1;rounded=0;exitX=0;exitY=0.5;exitDx=0;exitDy=0;entryX=1;entryY=0.5;entryDx=0;entryDy=0;" edge="1" parent="1" source="bZqsr0Kt9vONqrTMV2RE-86" target="bZqsr0Kt9vONqrTMV2RE-103">
          <mxGeometry width="50" height="50" relative="1" as="geometry">
            <mxPoint x="400" y="460" as="sourcePoint" />
            <mxPoint x="450" y="410" as="targetPoint" />
          </mxGeometry>
        </mxCell>
        <mxCell id="bZqsr0Kt9vONqrTMV2RE-107" value="" style="endArrow=classic;html=1;rounded=0;exitX=-0.004;exitY=0.474;exitDx=0;exitDy=0;entryX=1;entryY=0.5;entryDx=0;entryDy=0;exitPerimeter=0;" edge="1" parent="1" source="bZqsr0Kt9vONqrTMV2RE-104" target="bZqsr0Kt9vONqrTMV2RE-86">
          <mxGeometry width="50" height="50" relative="1" as="geometry">
            <mxPoint x="520" y="575" as="sourcePoint" />
            <mxPoint x="510" y="530" as="targetPoint" />
          </mxGeometry>
        </mxCell>
        <mxCell id="bZqsr0Kt9vONqrTMV2RE-108" value="" style="endArrow=classic;html=1;rounded=0;entryX=1;entryY=0.5;entryDx=0;entryDy=0;" edge="1" parent="1" target="bZqsr0Kt9vONqrTMV2RE-62">
          <mxGeometry width="50" height="50" relative="1" as="geometry">
            <mxPoint x="260" y="495" as="sourcePoint" />
            <mxPoint x="350" y="320" as="targetPoint" />
          </mxGeometry>
        </mxCell>
        <mxCell id="bZqsr0Kt9vONqrTMV2RE-109" value="" style="endArrow=classic;html=1;rounded=0;entryX=1;entryY=0.5;entryDx=0;entryDy=0;" edge="1" parent="1">
          <mxGeometry width="50" height="50" relative="1" as="geometry">
            <mxPoint x="90" y="494.86" as="sourcePoint" />
            <mxPoint x="70" y="494.86" as="targetPoint" />
          </mxGeometry>
        </mxCell>
        <mxCell id="bZqsr0Kt9vONqrTMV2RE-110" value="Emissions" style="text;html=1;align=center;verticalAlign=middle;whiteSpace=wrap;rounded=0;rotation=90;" vertex="1" parent="1">
          <mxGeometry x="-220" y="280" width="145" height="30" as="geometry" />
        </mxCell>
        <mxCell id="bZqsr0Kt9vONqrTMV2RE-111" value="&lt;font style=&quot;font-size: 10px;&quot;&gt;Extract Best Model&lt;/font&gt;" style="rounded=1;whiteSpace=wrap;html=1;fillColor=#f8cecc;strokeColor=#b85450;" vertex="1" parent="1">
          <mxGeometry x="50" y="280" width="90" height="30" as="geometry" />
        </mxCell>
        <mxCell id="bZqsr0Kt9vONqrTMV2RE-112" value="&lt;font style=&quot;font-size: 10px;&quot;&gt;Extract Best Model&lt;/font&gt;" style="rounded=1;whiteSpace=wrap;html=1;fillColor=#f8cecc;strokeColor=#b85450;" vertex="1" parent="1">
          <mxGeometry x="50" y="350" width="90" height="30" as="geometry" />
        </mxCell>
        <mxCell id="bZqsr0Kt9vONqrTMV2RE-113" value="" style="endArrow=classic;html=1;rounded=0;entryX=0;entryY=0.5;entryDx=0;entryDy=0;exitX=1;exitY=0.5;exitDx=0;exitDy=0;" edge="1" parent="1" source="bZqsr0Kt9vONqrTMV2RE-111" target="bZqsr0Kt9vONqrTMV2RE-1">
          <mxGeometry width="50" height="50" relative="1" as="geometry">
            <mxPoint x="100" y="200" as="sourcePoint" />
            <mxPoint x="60" y="305" as="targetPoint" />
          </mxGeometry>
        </mxCell>
        <mxCell id="bZqsr0Kt9vONqrTMV2RE-114" value="" style="endArrow=classic;html=1;rounded=0;entryX=0;entryY=0.5;entryDx=0;entryDy=0;exitX=1;exitY=0.5;exitDx=0;exitDy=0;" edge="1" parent="1">
          <mxGeometry width="50" height="50" relative="1" as="geometry">
            <mxPoint x="140" y="364.58" as="sourcePoint" />
            <mxPoint x="180" y="364.58" as="targetPoint" />
          </mxGeometry>
        </mxCell>
      </root>
    </mxGraphModel>
  </diagram>
</mxfile>
